<svg xmlns="http://www.w3.org/2000/svg" xmlns:xlink="http://www.w3.org/1999/xlink" width="500" zoomAndPan="magnify" viewBox="0 0 375 374.999991" height="500" preserveAspectRatio="xMidYMid meet" version="1.2"><defs><clipPath id="2a0738f6f1"><path d="M 171.636719 29.074219 L 369.636719 29.074219 L 369.636719 208.324219 L 171.636719 208.324219 Z M 171.636719 29.074219 "/></clipPath></defs><g id="8df3c49e85"><g clip-rule="nonzero" clip-path="url(#2a0738f6f1)"><path style=" stroke:none;fill-rule:nonzero;fill:#002868;fill-opacity:1;" d="M 317.570312 47.972656 L 275.203125 47.972656 L 275.203125 33.851562 C 275.203125 33.542969 275.171875 33.234375 275.113281 32.933594 C 275.050781 32.628906 274.960938 32.335938 274.84375 32.046875 C 274.726562 31.761719 274.582031 31.492188 274.410156 31.234375 C 274.238281 30.976562 274.042969 30.738281 273.824219 30.519531 C 273.605469 30.304688 273.367188 30.109375 273.109375 29.9375 C 272.855469 29.765625 272.582031 29.621094 272.296875 29.5 C 272.011719 29.382812 271.71875 29.292969 271.414062 29.234375 C 271.109375 29.171875 270.804688 29.144531 270.496094 29.144531 C 270.1875 29.144531 269.878906 29.171875 269.578125 29.234375 C 269.273438 29.292969 268.980469 29.382812 268.695312 29.5 C 268.410156 29.621094 268.136719 29.765625 267.878906 29.9375 C 267.621094 30.109375 267.386719 30.304688 267.167969 30.519531 C 266.949219 30.738281 266.753906 30.976562 266.582031 31.234375 C 266.410156 31.492188 266.265625 31.761719 266.144531 32.046875 C 266.027344 32.335938 265.9375 32.628906 265.878906 32.933594 C 265.816406 33.234375 265.789062 33.542969 265.789062 33.851562 L 265.789062 47.972656 L 223.417969 47.972656 C 222.648438 47.972656 221.878906 48.011719 221.113281 48.089844 C 220.347656 48.164062 219.585938 48.277344 218.828125 48.429688 C 218.074219 48.578125 217.328125 48.765625 216.589844 48.992188 C 215.851562 49.214844 215.128906 49.476562 214.414062 49.769531 C 213.703125 50.066406 213.007812 50.394531 212.328125 50.757812 C 211.648438 51.121094 210.988281 51.519531 210.347656 51.945312 C 209.707031 52.375 209.089844 52.832031 208.492188 53.324219 C 207.898438 53.8125 207.328125 54.328125 206.78125 54.875 C 206.238281 55.417969 205.71875 55.988281 205.230469 56.585938 C 204.742188 57.179688 204.285156 57.796875 203.855469 58.4375 C 203.425781 59.078125 203.03125 59.738281 202.667969 60.417969 C 202.304688 61.097656 201.972656 61.792969 201.679688 62.507812 C 201.382812 63.21875 201.125 63.941406 200.898438 64.679688 C 200.675781 65.417969 200.488281 66.164062 200.335938 66.921875 C 200.1875 67.675781 200.074219 68.4375 199.996094 69.203125 C 199.921875 69.972656 199.882812 70.738281 199.882812 71.511719 L 199.882812 156.246094 C 199.882812 157.019531 199.921875 157.785156 199.996094 158.554688 C 200.074219 159.320312 200.1875 160.082031 200.335938 160.839844 C 200.488281 161.59375 200.675781 162.339844 200.898438 163.078125 C 201.125 163.816406 201.382812 164.539062 201.679688 165.25 C 201.972656 165.964844 202.304688 166.660156 202.667969 167.339844 C 203.03125 168.019531 203.425781 168.679688 203.855469 169.320312 C 204.285156 169.960938 204.742188 170.578125 205.230469 171.175781 C 205.71875 171.769531 206.238281 172.339844 206.78125 172.886719 C 207.328125 173.429688 207.898438 173.945312 208.492188 174.4375 C 209.089844 174.925781 209.707031 175.382812 210.347656 175.8125 C 210.988281 176.242188 211.648438 176.636719 212.328125 177 C 213.007812 177.363281 213.703125 177.691406 214.414062 177.988281 C 215.128906 178.285156 215.851562 178.542969 216.589844 178.765625 C 217.328125 178.992188 218.074219 179.179688 218.828125 179.328125 C 219.585938 179.480469 220.347656 179.59375 221.113281 179.671875 C 221.878906 179.746094 222.648438 179.785156 223.417969 179.785156 L 249.144531 179.785156 L 266.578125 205.933594 C 266.792969 206.257812 267.042969 206.546875 267.332031 206.808594 C 267.617188 207.070312 267.933594 207.289062 268.273438 207.472656 C 268.617188 207.65625 268.972656 207.796875 269.351562 207.890625 C 269.726562 207.984375 270.109375 208.03125 270.496094 208.03125 C 270.882812 208.03125 271.265625 207.984375 271.640625 207.890625 C 272.015625 207.796875 272.375 207.65625 272.714844 207.472656 C 273.058594 207.289062 273.371094 207.070312 273.660156 206.808594 C 273.945312 206.546875 274.195312 206.257812 274.410156 205.933594 L 291.84375 179.785156 L 317.570312 179.785156 C 318.34375 179.785156 319.109375 179.746094 319.878906 179.671875 C 320.644531 179.59375 321.40625 179.480469 322.160156 179.328125 C 322.917969 179.179688 323.664062 178.992188 324.402344 178.765625 C 325.140625 178.542969 325.863281 178.285156 326.574219 177.988281 C 327.289062 177.691406 327.984375 177.363281 328.664062 177 C 329.34375 176.636719 330.003906 176.242188 330.644531 175.8125 C 331.285156 175.382812 331.902344 174.925781 332.496094 174.4375 C 333.09375 173.945312 333.664062 173.429688 334.207031 172.886719 C 334.753906 172.339844 335.269531 171.769531 335.757812 171.175781 C 336.25 170.578125 336.707031 169.960938 337.136719 169.320312 C 337.5625 168.679688 337.960938 168.019531 338.324219 167.339844 C 338.6875 166.660156 339.015625 165.964844 339.3125 165.25 C 339.605469 164.539062 339.867188 163.816406 340.089844 163.078125 C 340.316406 162.339844 340.503906 161.59375 340.652344 160.839844 C 340.804688 160.082031 340.917969 159.320312 340.992188 158.554688 C 341.070312 157.785156 341.109375 157.019531 341.109375 156.246094 L 341.109375 71.511719 C 341.109375 70.738281 341.070312 69.972656 340.992188 69.203125 C 340.917969 68.4375 340.804688 67.675781 340.652344 66.921875 C 340.503906 66.164062 340.316406 65.417969 340.089844 64.679688 C 339.867188 63.941406 339.605469 63.21875 339.3125 62.507812 C 339.015625 61.792969 338.6875 61.097656 338.324219 60.417969 C 337.960938 59.738281 337.5625 59.078125 337.136719 58.4375 C 336.707031 57.796875 336.25 57.179688 335.757812 56.585938 C 335.269531 55.988281 334.753906 55.417969 334.207031 54.875 C 333.664062 54.328125 333.09375 53.8125 332.496094 53.324219 C 331.902344 52.832031 331.285156 52.375 330.644531 51.945312 C 330.003906 51.519531 329.34375 51.121094 328.664062 50.757812 C 327.984375 50.394531 327.289062 50.066406 326.574219 49.769531 C 325.863281 49.476562 325.140625 49.214844 324.402344 48.992188 C 323.664062 48.765625 322.917969 48.578125 322.160156 48.429688 C 321.40625 48.277344 320.644531 48.164062 319.878906 48.089844 C 319.109375 48.011719 318.34375 47.972656 317.570312 47.972656 Z M 331.695312 156.246094 C 331.691406 157.175781 331.601562 158.09375 331.421875 159 C 331.238281 159.910156 330.96875 160.792969 330.613281 161.648438 C 330.257812 162.507812 329.824219 163.320312 329.308594 164.089844 C 328.792969 164.859375 328.207031 165.574219 327.554688 166.230469 C 326.898438 166.886719 326.183594 167.46875 325.414062 167.984375 C 324.644531 168.5 323.828125 168.9375 322.972656 169.292969 C 322.117188 169.644531 321.234375 169.914062 320.324219 170.097656 C 319.417969 170.277344 318.5 170.371094 317.570312 170.371094 L 289.324219 170.371094 C 288.539062 170.371094 287.800781 170.558594 287.105469 170.929688 C 286.410156 171.300781 285.847656 171.8125 285.410156 172.464844 L 270.496094 194.835938 L 255.582031 172.464844 C 255.144531 171.8125 254.578125 171.300781 253.886719 170.929688 C 253.191406 170.558594 252.453125 170.371094 251.664062 170.371094 L 223.417969 170.371094 C 222.492188 170.371094 221.574219 170.277344 220.664062 170.097656 C 219.757812 169.914062 218.875 169.644531 218.015625 169.292969 C 217.160156 168.9375 216.347656 168.5 215.578125 167.984375 C 214.804688 167.46875 214.09375 166.886719 213.4375 166.230469 C 212.78125 165.574219 212.195312 164.859375 211.679688 164.089844 C 211.167969 163.320312 210.730469 162.507812 210.375 161.648438 C 210.019531 160.792969 209.753906 159.910156 209.570312 159 C 209.390625 158.09375 209.296875 157.175781 209.296875 156.246094 L 209.296875 142.125 L 331.695312 142.125 Z M 331.695312 132.710938 L 209.296875 132.710938 L 209.296875 71.511719 C 209.296875 70.582031 209.390625 69.664062 209.570312 68.757812 C 209.753906 67.847656 210.019531 66.964844 210.375 66.109375 C 210.730469 65.253906 211.167969 64.4375 211.679688 63.667969 C 212.195312 62.898438 212.78125 62.183594 213.4375 61.527344 C 214.09375 60.875 214.804688 60.289062 215.578125 59.773438 C 216.347656 59.257812 217.160156 58.824219 218.015625 58.46875 C 218.875 58.113281 219.757812 57.84375 220.664062 57.660156 C 221.574219 57.480469 222.492188 57.390625 223.417969 57.386719 L 317.570312 57.386719 C 318.5 57.390625 319.417969 57.480469 320.324219 57.660156 C 321.234375 57.84375 322.117188 58.113281 322.972656 58.46875 C 323.828125 58.824219 324.644531 59.257812 325.414062 59.773438 C 326.183594 60.289062 326.898438 60.875 327.554688 61.527344 C 328.207031 62.183594 328.792969 62.898438 329.308594 63.667969 C 329.824219 64.4375 330.257812 65.253906 330.613281 66.109375 C 330.96875 66.964844 331.238281 67.847656 331.421875 68.757812 C 331.601562 69.664062 331.691406 70.582031 331.695312 71.511719 Z M 251.664062 99.757812 C 251.664062 100.375 251.605469 100.988281 251.484375 101.59375 C 251.363281 102.199219 251.183594 102.789062 250.949219 103.359375 C 250.710938 103.929688 250.421875 104.472656 250.078125 104.988281 C 249.734375 105.5 249.34375 105.976562 248.90625 106.414062 C 248.46875 106.851562 247.996094 107.242188 247.480469 107.585938 C 246.964844 107.929688 246.425781 108.21875 245.851562 108.453125 C 245.28125 108.691406 244.691406 108.871094 244.085938 108.992188 C 243.480469 109.109375 242.867188 109.171875 242.25 109.171875 C 241.632812 109.171875 241.019531 109.109375 240.414062 108.992188 C 239.808594 108.871094 239.21875 108.691406 238.648438 108.453125 C 238.074219 108.21875 237.53125 107.929688 237.019531 107.585938 C 236.503906 107.242188 236.03125 106.851562 235.59375 106.414062 C 235.15625 105.976562 234.765625 105.5 234.421875 104.988281 C 234.078125 104.472656 233.789062 103.929688 233.550781 103.359375 C 233.316406 102.789062 233.136719 102.199219 233.015625 101.59375 C 232.894531 100.988281 232.835938 100.375 232.835938 99.757812 C 232.835938 99.136719 232.894531 98.527344 233.015625 97.917969 C 233.136719 97.3125 233.316406 96.722656 233.550781 96.152344 C 233.789062 95.582031 234.078125 95.039062 234.421875 94.527344 C 234.765625 94.011719 235.15625 93.535156 235.59375 93.097656 C 236.03125 92.660156 236.503906 92.269531 237.019531 91.929688 C 237.53125 91.585938 238.074219 91.292969 238.648438 91.058594 C 239.21875 90.820312 239.808594 90.644531 240.414062 90.523438 C 241.019531 90.402344 241.632812 90.339844 242.25 90.339844 C 242.867188 90.339844 243.480469 90.402344 244.085938 90.523438 C 244.691406 90.644531 245.28125 90.820312 245.851562 91.058594 C 246.425781 91.292969 246.964844 91.585938 247.480469 91.929688 C 247.996094 92.269531 248.46875 92.660156 248.90625 93.097656 C 249.34375 93.535156 249.734375 94.011719 250.078125 94.527344 C 250.421875 95.039062 250.710938 95.582031 250.949219 96.152344 C 251.183594 96.722656 251.363281 97.3125 251.484375 97.917969 C 251.605469 98.527344 251.664062 99.136719 251.664062 99.757812 Z M 308.15625 99.757812 C 308.15625 100.375 308.097656 100.988281 307.976562 101.59375 C 307.855469 102.199219 307.675781 102.789062 307.4375 103.359375 C 307.203125 103.929688 306.914062 104.472656 306.570312 104.988281 C 306.226562 105.5 305.835938 105.976562 305.398438 106.414062 C 304.960938 106.851562 304.484375 107.242188 303.972656 107.585938 C 303.457031 107.929688 302.914062 108.21875 302.34375 108.453125 C 301.773438 108.691406 301.183594 108.871094 300.578125 108.992188 C 299.972656 109.109375 299.359375 109.171875 298.742188 109.171875 C 298.121094 109.171875 297.511719 109.109375 296.902344 108.992188 C 296.296875 108.871094 295.710938 108.691406 295.136719 108.453125 C 294.566406 108.21875 294.023438 107.929688 293.511719 107.585938 C 292.996094 107.242188 292.519531 106.851562 292.082031 106.414062 C 291.644531 105.976562 291.257812 105.5 290.914062 104.988281 C 290.570312 104.472656 290.277344 103.929688 290.042969 103.359375 C 289.804688 102.789062 289.628906 102.199219 289.507812 101.59375 C 289.386719 100.988281 289.324219 100.375 289.324219 99.757812 C 289.324219 99.136719 289.386719 98.527344 289.507812 97.917969 C 289.628906 97.3125 289.804688 96.722656 290.042969 96.152344 C 290.277344 95.582031 290.570312 95.039062 290.914062 94.527344 C 291.257812 94.011719 291.644531 93.535156 292.082031 93.097656 C 292.519531 92.660156 292.996094 92.269531 293.511719 91.929688 C 294.023438 91.585938 294.566406 91.292969 295.136719 91.058594 C 295.710938 90.820312 296.296875 90.644531 296.902344 90.523438 C 297.511719 90.402344 298.121094 90.339844 298.742188 90.339844 C 299.359375 90.339844 299.972656 90.402344 300.578125 90.523438 C 301.183594 90.644531 301.773438 90.820312 302.34375 91.058594 C 302.914062 91.292969 303.457031 91.585938 303.972656 91.929688 C 304.484375 92.269531 304.960938 92.660156 305.398438 93.097656 C 305.835938 93.535156 306.226562 94.011719 306.570312 94.527344 C 306.914062 95.039062 307.203125 95.582031 307.4375 96.152344 C 307.675781 96.722656 307.855469 97.3125 307.976562 97.917969 C 308.097656 98.527344 308.15625 99.136719 308.15625 99.757812 Z M 181.050781 80.925781 L 181.050781 118.585938 C 181.050781 118.894531 181.019531 119.203125 180.960938 119.503906 C 180.902344 119.808594 180.8125 120.101562 180.691406 120.386719 C 180.574219 120.675781 180.429688 120.945312 180.257812 121.203125 C 180.085938 121.460938 179.890625 121.695312 179.671875 121.914062 C 179.453125 122.132812 179.214844 122.328125 178.957031 122.5 C 178.703125 122.671875 178.429688 122.816406 178.144531 122.9375 C 177.859375 123.054688 177.566406 123.144531 177.261719 123.203125 C 176.957031 123.265625 176.652344 123.292969 176.34375 123.292969 C 176.035156 123.292969 175.726562 123.265625 175.425781 123.203125 C 175.121094 123.144531 174.828125 123.054688 174.542969 122.9375 C 174.257812 122.816406 173.984375 122.671875 173.726562 122.5 C 173.472656 122.328125 173.234375 122.132812 173.015625 121.914062 C 172.796875 121.695312 172.601562 121.460938 172.429688 121.203125 C 172.257812 120.945312 172.113281 120.675781 171.996094 120.386719 C 171.875 120.101562 171.785156 119.808594 171.726562 119.503906 C 171.667969 119.203125 171.636719 118.894531 171.636719 118.585938 L 171.636719 80.925781 C 171.636719 80.617188 171.667969 80.3125 171.726562 80.007812 C 171.785156 79.703125 171.875 79.410156 171.996094 79.125 C 172.113281 78.839844 172.257812 78.566406 172.429688 78.3125 C 172.601562 78.054688 172.796875 77.816406 173.015625 77.597656 C 173.234375 77.378906 173.472656 77.183594 173.726562 77.011719 C 173.984375 76.839844 174.257812 76.695312 174.542969 76.578125 C 174.828125 76.457031 175.121094 76.371094 175.425781 76.308594 C 175.726562 76.25 176.035156 76.21875 176.34375 76.21875 C 176.652344 76.21875 176.957031 76.25 177.261719 76.308594 C 177.566406 76.371094 177.859375 76.457031 178.144531 76.578125 C 178.429688 76.695312 178.703125 76.839844 178.957031 77.011719 C 179.214844 77.183594 179.453125 77.378906 179.671875 77.597656 C 179.890625 77.816406 180.085938 78.054688 180.257812 78.3125 C 180.429688 78.566406 180.574219 78.839844 180.691406 79.125 C 180.8125 79.410156 180.902344 79.703125 180.960938 80.007812 C 181.019531 80.3125 181.050781 80.617188 181.050781 80.925781 Z M 369.355469 80.925781 L 369.355469 118.585938 C 369.355469 118.894531 369.324219 119.203125 369.265625 119.503906 C 369.203125 119.808594 369.113281 120.101562 368.996094 120.386719 C 368.878906 120.675781 368.734375 120.945312 368.5625 121.203125 C 368.390625 121.460938 368.195312 121.695312 367.976562 121.914062 C 367.757812 122.132812 367.519531 122.328125 367.261719 122.5 C 367.003906 122.671875 366.734375 122.816406 366.449219 122.9375 C 366.164062 123.054688 365.867188 123.144531 365.566406 123.203125 C 365.261719 123.265625 364.957031 123.292969 364.648438 123.292969 C 364.339844 123.292969 364.03125 123.265625 363.730469 123.203125 C 363.425781 123.144531 363.132812 123.054688 362.84375 122.9375 C 362.558594 122.816406 362.289062 122.671875 362.03125 122.5 C 361.773438 122.328125 361.535156 122.132812 361.320312 121.914062 C 361.101562 121.695312 360.90625 121.460938 360.734375 121.203125 C 360.5625 120.945312 360.417969 120.675781 360.296875 120.386719 C 360.179688 120.101562 360.089844 119.808594 360.03125 119.503906 C 359.96875 119.203125 359.941406 118.894531 359.941406 118.585938 L 359.941406 80.925781 C 359.941406 80.617188 359.96875 80.3125 360.03125 80.007812 C 360.089844 79.703125 360.179688 79.410156 360.296875 79.125 C 360.417969 78.839844 360.5625 78.566406 360.734375 78.3125 C 360.90625 78.054688 361.101562 77.816406 361.320312 77.597656 C 361.535156 77.378906 361.773438 77.183594 362.03125 77.011719 C 362.289062 76.839844 362.558594 76.695312 362.84375 76.578125 C 363.132812 76.457031 363.425781 76.371094 363.730469 76.308594 C 364.03125 76.25 364.339844 76.21875 364.648438 76.21875 C 364.957031 76.21875 365.261719 76.25 365.566406 76.308594 C 365.867188 76.371094 366.164062 76.457031 366.449219 76.578125 C 366.734375 76.695312 367.003906 76.839844 367.261719 77.011719 C 367.519531 77.183594 367.757812 77.378906 367.976562 77.597656 C 368.195312 77.816406 368.390625 78.054688 368.5625 78.3125 C 368.734375 78.566406 368.878906 78.839844 368.996094 79.125 C 369.113281 79.410156 369.203125 79.703125 369.265625 80.007812 C 369.324219 80.3125 369.355469 80.617188 369.355469 80.925781 Z M 369.355469 80.925781 "/></g><g style="fill:#002868;fill-opacity:1;"><g transform="translate(-2.999995, 323.522419)"><path style="stroke:none" d="M 53.453125 -81.34375 C 45.566406 -81.34375 39.535156 -78.394531 35.359375 -72.5 C 31.191406 -66.601562 29.109375 -58.53125 29.109375 -48.28125 C 29.109375 -37.945312 31.035156 -29.945312 34.890625 -24.28125 C 38.742188 -18.613281 44.929688 -15.78125 53.453125 -15.78125 C 57.347656 -15.78125 61.289062 -16.234375 65.28125 -17.140625 C 69.269531 -18.046875 73.578125 -19.316406 78.203125 -20.953125 L 78.203125 -3.671875 C 73.941406 -1.953125 69.722656 -0.6875 65.546875 0.125 C 61.378906 0.945312 56.710938 1.359375 51.546875 1.359375 C 41.484375 1.359375 33.234375 -0.703125 26.796875 -4.828125 C 20.359375 -8.953125 15.597656 -14.753906 12.515625 -22.234375 C 9.429688 -29.710938 7.890625 -38.441406 7.890625 -48.421875 C 7.890625 -58.210938 9.65625 -66.867188 13.1875 -74.390625 C 16.726562 -81.921875 21.875 -87.816406 28.625 -92.078125 C 35.382812 -96.335938 43.660156 -98.46875 53.453125 -98.46875 C 58.253906 -98.46875 63.082031 -97.851562 67.9375 -96.625 C 72.789062 -95.40625 77.4375 -93.753906 81.875 -91.671875 L 75.21875 -74.9375 C 71.59375 -76.664062 67.941406 -78.164062 64.265625 -79.4375 C 60.597656 -80.707031 56.992188 -81.34375 53.453125 -81.34375 Z M 53.453125 -81.34375 "/></g></g><g style="fill:#002868;fill-opacity:1;"><g transform="translate(83.642196, 323.522419)"><path style="stroke:none" d="M 88.40625 -97.109375 L 55.359375 0 L 32.921875 0 L 0 -97.109375 L 20.8125 -97.109375 L 39.03125 -39.3125 C 39.300781 -38.3125 39.800781 -36.472656 40.53125 -33.796875 C 41.257812 -31.117188 41.984375 -28.304688 42.703125 -25.359375 C 43.429688 -22.421875 43.929688 -19.953125 44.203125 -17.953125 C 44.472656 -19.953125 44.945312 -22.421875 45.625 -25.359375 C 46.3125 -28.304688 46.992188 -31.117188 47.671875 -33.796875 C 48.347656 -36.472656 48.867188 -38.3125 49.234375 -39.3125 L 67.59375 -97.109375 Z M 88.40625 -97.109375 "/></g></g><g style="fill:#002868;fill-opacity:1;"><g transform="translate(172.052611, 323.522419)"><path style="stroke:none" d="M 7.75 -9.515625 C 7.75 -13.691406 8.878906 -16.617188 11.140625 -18.296875 C 13.410156 -19.972656 16.179688 -20.8125 19.453125 -20.8125 C 22.617188 -20.8125 25.335938 -19.972656 27.609375 -18.296875 C 29.878906 -16.617188 31.015625 -13.691406 31.015625 -9.515625 C 31.015625 -5.523438 29.878906 -2.644531 27.609375 -0.875 C 25.335938 0.882812 22.617188 1.765625 19.453125 1.765625 C 16.179688 1.765625 13.410156 0.882812 11.140625 -0.875 C 8.878906 -2.644531 7.75 -5.523438 7.75 -9.515625 Z M 7.75 -9.515625 "/></g></g><g style="fill:#002868;fill-opacity:1;"><g transform="translate(210.817166, 323.522419)"><path style="stroke:none" d="M 71.6875 0 L 64.609375 -23.125 L 29.25 -23.125 L 22.171875 0 L 0 0 L 34.28125 -97.515625 L 59.4375 -97.515625 L 93.84375 0 Z M 59.703125 -40.390625 L 52.640625 -62.96875 C 52.179688 -64.507812 51.585938 -66.457031 50.859375 -68.8125 C 50.140625 -71.175781 49.414062 -73.582031 48.6875 -76.03125 C 47.96875 -78.476562 47.378906 -80.609375 46.921875 -82.421875 C 46.472656 -80.609375 45.863281 -78.363281 45.09375 -75.6875 C 44.320312 -73.019531 43.59375 -70.484375 42.90625 -68.078125 C 42.226562 -65.671875 41.707031 -63.96875 41.34375 -62.96875 L 34.40625 -40.390625 Z M 59.703125 -40.390625 "/></g></g><g style="fill:#002868;fill-opacity:1;"><g transform="translate(304.668222, 323.522419)"><path style="stroke:none" d="M 48.5625 0 L 4.359375 0 L 4.359375 -11.703125 L 16.1875 -17.140625 L 16.1875 -79.984375 L 4.359375 -85.421875 L 4.359375 -97.109375 L 48.5625 -97.109375 L 48.5625 -85.421875 L 36.71875 -79.984375 L 36.71875 -17.140625 L 48.5625 -11.703125 Z M 48.5625 0 "/></g></g></g></svg>